/* XPM */
static char * RedwallD_xpm[] = {
"64 64 240 2",
"  	c #000000",
". 	c #0000A8",
"+ 	c #00A800",
"@ 	c #00A8A8",
"# 	c #A80000",
"$ 	c #A800A8",
"% 	c #A85400",
"& 	c #4C4436",
"* 	c #545454",
"= 	c #5454FC",
"- 	c #524A42",
"; 	c #5E5246",
"> 	c #736352",
", 	c #685D4C",
"' 	c #FCFC54",
") 	c #FCFCFC",
"! 	c #ECECEC",
"~ 	c #DCDCDC",
"{ 	c #D0D0D0",
"] 	c #C0C0C0",
"^ 	c #B4B4B4",
"/ 	c #A8A8A8",
"( 	c #989898",
"_ 	c #8C8C8C",
": 	c #7C7C7C",
"< 	c #707070",
"[ 	c #646464",
"} 	c #545454",
"| 	c #484848",
"1 	c #383838",
"2 	c #2C2C2C",
"3 	c #202020",
"4 	c #FC0000",
"5 	c #EC0000",
"6 	c #E00000",
"7 	c #D40000",
"8 	c #C80000",
"9 	c #BC0000",
"0 	c #B00000",
"a 	c #A40000",
"b 	c #980000",
"c 	c #880000",
"d 	c #7C0000",
"e 	c #700000",
"f 	c #640000",
"g 	c #580000",
"h 	c #4C0000",
"i 	c #400000",
"j 	c #FCD8D8",
"k 	c #FCB8B8",
"l 	c #FC9C9C",
"m 	c #FC7C7C",
"n 	c #FC5C5C",
"o 	c #FC4040",
"p 	c #FC2020",
"q 	c #FC0000",
"r 	c #FCA85C",
"s 	c #FC9840",
"t 	c #FC8820",
"u 	c #FC7800",
"v 	c #E46C00",
"w 	c #CC6000",
"x 	c #B45400",
"y 	c #9C4C00",
"z 	c #FCFCD8",
"A 	c #FCFCB8",
"B 	c #FCFC9C",
"C 	c #FCFC7C",
"D 	c #FCF85C",
"E 	c #FCF440",
"F 	c #FCF420",
"G 	c #FCF400",
"H 	c #E4D800",
"I 	c #CCC400",
"J 	c #B4AC00",
"K 	c #9C9C00",
"L 	c #848400",
"M 	c #706C00",
"N 	c #585400",
"O 	c #404000",
"P 	c #849C7B",
"Q 	c #738C6B",
"R 	c #6B7B63",
"S 	c #637352",
"T 	c #5A6B52",
"U 	c #525A4A",
"V 	c #4A5242",
"W 	c #425239",
"X 	c #394A39",
"Y 	c #313931",
"Z 	c #313929",
"` 	c #293129",
" .	c #293121",
"..	c #212921",
"+.	c #182118",
"@.	c #181818",
"#.	c #00FC00",
"$.	c #00EC00",
"%.	c #00E000",
"&.	c #00D400",
"*.	c #04C800",
"=.	c #04BC00",
"-.	c #04B000",
";.	c #04A400",
">.	c #049800",
",.	c #048800",
"'.	c #047C00",
").	c #047000",
"!.	c #046400",
"~.	c #045800",
"{.	c #044C00",
"].	c #044000",
"^.	c #C8BFB2",
"/.	c #A89A85",
"(.	c #9A8C77",
"_.	c #7CFCF8",
":.	c #5CFCFC",
"<.	c #40FCFC",
"[.	c #20FCFC",
"}.	c #00FCFC",
"|.	c #00E4E4",
"1.	c #00CCCC",
"2.	c #00B4B4",
"3.	c #009C9C",
"4.	c #008484",
"5.	c #007070",
"6.	c #005858",
"7.	c #004040",
"8.	c #94846B",
"9.	c #8C7B67",
"0.	c #847B63",
"a.	c #81735D",
"b.	c #7B6B5A",
"c.	c #007CCC",
"d.	c #006CB4",
"e.	c #005C9C",
"f.	c #736B5A",
"g.	c #736B52",
"h.	c #9C9CFC",
"i.	c #7C80FC",
"j.	c #5C60FC",
"k.	c #4040FC",
"l.	c #2024FC",
"m.	c #0004FC",
"n.	c #0000FC",
"o.	c #0000EC",
"p.	c #0000E0",
"q.	c #0000D4",
"r.	c #0000C8",
"s.	c #0000BC",
"t.	c #0000B0",
"u.	c #0000A4",
"v.	c #000098",
"w.	c #000088",
"x.	c #00007C",
"y.	c #000070",
"z.	c #000064",
"A.	c #000058",
"B.	c #00004C",
"C.	c #000040",
"D.	c #282828",
"E.	c #FCE034",
"F.	c #FCD424",
"G.	c #FCCC18",
"H.	c #FCC008",
"I.	c #FCB400",
"J.	c #B420FC",
"K.	c #A800FC",
"L.	c #9800E4",
"M.	c #8000CC",
"N.	c #7400B4",
"O.	c #60009C",
"P.	c #500084",
"Q.	c #440070",
"R.	c #340058",
"S.	c #280040",
"T.	c #FCD8FC",
"U.	c #FCB8FC",
"V.	c #FC9CFC",
"W.	c #FC7CFC",
"X.	c #FC5CFC",
"Y.	c #FC40FC",
"Z.	c #FC20FC",
"`.	c #FC00FC",
" +	c #E000E4",
".+	c #C800CC",
"++	c #B400B4",
"@+	c #9C009C",
"#+	c #840084",
"$+	c #6C0070",
"%+	c #580058",
"&+	c #400040",
"*+	c #FCE8DC",
"=+	c #FCE0D0",
"-+	c #FCD8C4",
";+	c #FCD4BC",
">+	c #FCCCB0",
",+	c #FCC4A4",
"'+	c #FCBC9C",
")+	c #FCB890",
"!+	c #FCB080",
"~+	c #FCA470",
"{+	c #FC9C60",
"]+	c #F0945C",
"^+	c #E88C58",
"/+	c #DC8854",
"(+	c #D08050",
"_+	c #C87C4C",
":+	c #BC7848",
"<+	c #B47044",
"[+	c #A86840",
"}+	c #A0643C",
"|+	c #9C6038",
"1+	c #905C34",
"2+	c #885830",
"3+	c #80502C",
"4+	c #744C28",
"5+	c #6C4824",
"6+	c #5C4020",
"7+	c #543C1C",
"8+	c #483818",
"9+	c #403018",
"0+	c #382C14",
"a+	c #28200C",
"b+	c #600064",
"c+	c #006464",
"d+	c #006060",
"e+	c #00001C",
"f+	c #00002C",
"g+	c #302410",
"h+	c #480048",
"i+	c #500050",
"j+	c #000034",
"k+	c #1C1C1C",
"l+	c #4C4C4C",
"m+	c #5C5C5C",
"n+	c #404040",
"o+	c #303030",
"p+	c #343434",
"q+	c #2E2B22",
"D.D.D.D.D.D.D.D.D.D.D.D.D.D.D.D.D.D.D.D.D.D.D.D.D.D.D.D.D.D.D.D.D.D.D.D.D.D.D.D.D.D.D.D.D.D.D.D.D.D.D.D.D.D.D.D.D.D.D.D.D.D.D.D.",
"> > > > > > > > > > - & & & k+D.D.& & & - > > > > > > > > > > > > > > > > > > > > > - & & & k+D.D.& & & - > > > > > > > > > > > ",
"- ; ; - & - ; ; ; - > > ; q+  D.D.p+& - & ; ; ; > ; - ; ; - ; - > > ; & - & ; & & & & & ; q+  D.D.p+; ; ; ; & q+q+& & & & - ; - ",
"> > - ; - & - > > > > ; > q+  D.D.p+p+& ; ; ; > > ; - - & - - ; > ; > - ; ; ; - - ; - & - q+  D.D.p+> > ; & & q+q+& & - & & > > ",
"> > & & - - ; ; ; > ; ; ; q+  D.D.p+& ; - ; ; > ; ; - ; - - ; - ; > ; ; - - ; b.- ; & - & q+  D.D.p+; ; > ; - - & q+- ; ; ; > > ",
"; > - ; ; - - > > > > > & q+  D.D.p+; & ; ; ; ; ; ; - & & - & - ; > ; > b.> > ; - - & & & q+  D.D.p+- ; > & & ; ; & & - ; ; > b.",
"; > ; ; - ; ; ; ; > ; > ; q+  D.D.p+> > ; ; - - & ; ; ; - & & - & & ; ; > > ; ; ; & & q+& q+  D.D.p+; ; ; > > ; ; > ; > > ; > ; ",
"; - ; - ; ; > > > ; ; ; ; q+  D.D.p+> ; > - & - - & ; & - - p+- - & - ; > ; ; - & - & q+& q+  D.D.p+& ; - ; ; ; > b.> ; ; > > > ",
"          @.@.@.@.@.+.q+q+q+  D.D.q+q+q++.@.@.@.@.                        @.@.@.@.@.+.q+q+q+  D.D.q+q+q++.@.@.@.@.              ",
"                              D.D.k+                                                          D.D.k+                            ",
"3+3+4+5+5+7+6+6+5+6+3+5+5+3+2+6+3+5+6+6+6+6+4+6+7+6+5+6+6+6+6+7+6+7+7+5+6+3+6+5+6+6+5+4+6+6+6+8+6+7+6+7+6+7+6+5+3+6+4+5+6+6+3+7+",
"8+8+9+9+g+a+g+g+g+g+9+a+a+9+7+9+8+9+g+g+a+g+9+g+a+a+g+g+g+g+9+g+8+g+a+a+a+a+g+g+g+a+g+9+a+g+9+g+8+g+9+a+g+a+g+g+9+a+g+g+g+9+9+g+",
"a+a+a+a+a+a+a+a+a+a+a+a+a+a+a+a+a+a+a+a+a+a+a+a+a+a+a+a+a+a+a+a+a+a+a+a+a+a+a+a+a+a+a+a+a+a+a+a+a+a+a+a+a+a+a+a+a+a+a+a+a+a+a+a+",
"d d d b b b b d e d d e d d c b b b c c d c c c c c c c c b b b b b b c d e d d d d c b b c b b 0 0 a a a 0 a 0 0 a b b b b d d ",
"e e d c c c d e e d c c c c b b b b b c d d c c c c b b b b a b b b c d d e e d c c c b b b b a 0 9 9 0 a 0 0 0 0 a b b b b c d ",
"d e d c c d d d d c c b b b b b c b b b d c c b b b b b a b b a b b c e e e e d d c b a 0 a a 0 9 9 9 0 b b a 0 a a a b b b c d ",
"d d d c c c d c b b a a a b b c c c b b c b b a 0 a b b b b b b b b d e e e d d c b b a 0 0 0 0 0 0 0 a c c b a a 0 0 b c c d d ",
"c c c c c c c c b a 0 a a a b c c d c b b b b a 0 0 a b b b b b b c d d e e e c b b b b a 0 0 0 0 a b b b c c b a a b c d d d d ",
"c c c d d c b b b a a 0 a b b b c d c b a 0 0 0 0 0 0 b b b b b b c d e e f f d c b b b b 0 0 a b b c c b b d d c c b c d d d c ",
"c c c d c b b b a 0 0 0 a b b b b b b a a 0 0 0 0 0 9 0 b b b b b c c d e e e d c d c c c b a b b d d d c d e f e d b b c d c c ",
"c b b b a a a a a 0 9 9 0 0 0 0 a 0 9 9 0 9 0 0 0 9 9 9 a b c b b c c c d e e d d d d c d d c c c d d d c d e f e d c c b c d d ",
"b b b a 0 0 0 0 0 0 0 9 8 8 8 9 0 0 9 9 9 0 9 9 9 9 9 0 a b c c b c c c d e f f f e d c d c c c b c d c c c c e e d d c b b d c ",
"b a a 0 0 0 0 0 0 9 9 8 8 8 8 9 0 a a 0 0 0 9 9 9 0 0 0 a b b c c c c d e f f g g e d c b b b b b b b c c b b d e e d d b b b b ",
"a a 0 0 0 9 9 9 8 8 8 8 8 8 8 9 0 b a 0 9 9 0 0 a a a a b b b c d c c c e f f g g e d b b a a a b b b c c b b c e e d d c b b a ",
"0 0 0 0 9 9 8 8 8 8 8 9 9 8 9 0 a a a 0 9 9 0 a a a a a b c c d d d d c d f f g h f d b b a 0 0 a b b b c c b c d d c c b b a 0 ",
"0 0 0 0 0 0 8 8 8 8 8 0 a 0 a b b a a a 0 0 0 a b b b b c d d e e e e d d d e f g f d c b 0 0 9 0 b b c d d c c c b c b b b a 0 ",
"0 0 a a a 0 0 9 9 9 9 0 a a a b b a a b a 0 0 a a b c d e e e e e e e d c d e e e e d b b a 0 0 0 b c d d d c b b b b b a a a 0 ",
"0 0 a b b b a a 0 0 0 a b b b b b b b b a a a a b c d e e e f e e e e d d c d d d d d b b b a a b c c c b b b b a 0 a a a a a a ",
"a a a b c b b b b a a b b c c c b b b b b b b b c d d e f f f e d d d d d c b c d c d c b b b b b b b b b a a a 0 9 0 a a 0 a b ",
"b b a b c b b c d c c b b c c b b b a a a b b b b d d d e e e e e d c c c b b c c c d d d c c b a 0 a a a 0 9 9 9 8 8 0 a a a a ",
"b b b b b c c d d d d c b b b b b a a a a b b b b b c c d e e e d d c c d c c c b c d e d c b b b 0 0 0 0 0 9 9 9 9 8 9 a a a a ",
"b c d d c d e d d c d d b b b b b b a 0 0 a b b b b c d d d e d d d d c d c c b b b c d d d c c b 0 0 0 9 9 9 8 9 9 0 0 0 a a a ",
"b d f f d d e d c c c d b a a 0 a a 0 9 9 0 a b b b c c b c d d d d e d c c b b a b b b d d c b a 9 9 8 8 9 9 9 9 9 0 0 0 a b b ",
"b c e g f d d c b b c c c b a 0 0 0 a 0 0 0 a a b b b b b b d d d c c c c b b a 0 a b b c c b b 0 9 8 8 9 9 0 a 0 0 a b a b c d ",
"d d d e f e c c b b b b c c b b a 0 a 0 0 0 0 0 a b b c b b d e e c b b b a 0 0 0 0 a a a b b b a 0 9 9 0 0 a b b b b c c c d e ",
"e e d d e e d b b b b b d d c b a a 0 0 a 0 9 9 0 a b c c c c d e d b b a 0 9 9 9 9 9 0 a a b b b a 0 a b b b c c c c c c d c d ",
"d d d c d f e c c c b b d e e d b b a a a a 0 0 0 0 b d d d d d d d b 0 0 9 9 9 9 9 0 a b b b c c b b b b b b c d d d d d e d d ",
"c c c d d f g f d c b b b d d d c b a a b b a a 0 0 b d e f e d d d b 0 0 9 9 9 0 0 a b c b b c e e d c b b c c d d e e f e e d ",
"b c d d e e g g e c b b b b c c c b a a a b b a a 0 a d e e e d d c b a 0 9 0 0 0 a a b d d c d e e e d c c c c c d d e e d d c ",
"b b c e e e f g f d b b b b b b b b b b a b b c b a a d e e e d b b c b a 0 0 0 a a b b d f e c d e e d d d c c c b b b d c c d ",
"c c d e e e e f g e d b b a a a b b b b b b b b c b b c d e d c c b c b b a a a b b b b c e e d d d d d d d c b b b b b b c d e ",
"d e e e d d e e f f e c b b a a a b b a a a 0 a c c c c c d d d c b b a a b b b b c c c b c d d d d d d d d c b a a a a b c d d ",
"e e e e d d d d f g g d c b a 0 a b a a a b a a b c d c c d d d c b a a 0 a b b b b c c c c c d d d d d d e c b a 0 0 a a b d d ",
"g f e e d d d d e f g g d b 0 0 0 b b b b b b b b c d d c c d d c b b a 0 a b c c b c c d c c c d d d c b c b a 0 9 0 a b b d d ",
"e e e d d e e e e e f f e c a 0 a a c c b b b b b b d e c b b c c c b a 0 0 a b c c c c d c b b b b c b b a a 0 0 9 0 0 a b c d ",
"d d e d d d e f e e e e e d b a a b b c c c b b b b d e d c b c d d b a a 0 0 b d d d c d c b b b b b b a 0 9 0 0 9 9 0 a a a a ",
"c d e e d d e e e d d e d d d c b b b b c b b b b c d d e d c c d d b a a a a b e e d d d c c b b b b b 0 8 8 9 0 0 0 0 a a a 0 ",
"a c d e e d d d d c b c d e e d c b b b b b a a a b d d e f e c c c b b a a a b c d e e d d c b b b b a 0 8 8 8 9 0 0 a a b b a ",
"a b c d e d c d d c b c d e e d c b a a a b a a a b c d e f e d b c c c b b a a a b d e e d d b b b a 0 0 8 8 8 8 0 a a b b b b ",
"b b c e e e d c c c c b b d d d c b a a a b b b b b c d e e f e d d d d c b b b b b c d e d c b a a a 0 0 0 8 8 8 9 a a b b b b ",
"c b c d d d d c b b b a 0 a a b b a a a b b c c b b b d e e f g f e d d d b a 0 a b b c d d b b a a a a 0 a 0 8 8 8 0 a b b b b ",
"6+6+6+6+7+6+7+7+5+6+3+6+5+6+6+5+4+6+6+6+8+6+7+6+7+6+7+6+5+3+6+4+5+6+6+3+7+3+3+4+5+5+7+6+6+5+6+3+5+5+3+2+6+3+5+6+6+6+6+4+6+7+6+5+",
"g+g+g+9+g+8+g+a+a+a+a+g+g+g+a+g+9+a+g+9+g+8+g+9+a+g+a+g+g+9+a+g+g+g+9+9+g+8+8+9+9+g+a+g+g+g+g+9+a+a+9+7+9+8+9+g+g+a+g+9+g+a+a+g+",
"a+a+a+a+a+a+a+a+a+a+a+a+a+a+a+a+a+a+a+a+a+a+a+a+a+a+a+a+a+a+a+a+a+a+a+a+a+a+a+a+a+a+a+a+a+a+a+a+a+a+a+a+a+a+a+a+a+a+a+a+a+a+a+a+",
"3 3 3 3 3 3 3 3 3 3 3 3 3 3 3 3 3 3 3 3 3 3 3 3 3 3 3 3 3 3 3 3 3 3 3 3 3 3 3 3 3 3 3 3 3 3 3 3 3 3 3 3 3 3 3 3 3 3 3 3 3 3 3 3 ",
"D.& & & - > > > > > > > > > > > > > > > > > > > > > - & & & k+D.D.& & & - > > > > > > > > > > > > > > > > > > > > > - & & & k+D.",
"D.p+; ; > ; > > b.> > > b.> ; ; > > > ; & & - & ; ; ; > > q+  D.D.p+> ; > - ; ; ; b.b.b.> b.> ; ; > > ; ; ; - & ; > > ; b.q+  D.",
"D.p+; ; ; > - b.b.8.8.b.; - ; ; ; > ; > ; & - ; ; > ; b.> q+  D.D.p+& ; - - - ; ; ; b.> b.> > > ; > - ; ; ; - - - - ; > b.q+  D.",
"D.p+- & - > ; b.b.b.b.b.; > - & - ; - ; > - & > > > ; b.> q+  D.D.p+& ; ; - ; - ; - > ; > > ; ; ; - & - - - ; - > ; ; > ; q+  D.",
"D.p+& p+- & b.> b.b.8.b.; - & - & ; ; ; ; > - ; > > b.b.; q+  D.D.p+; ; - - & & & & ; ; > > ; - - p+; & ; > ; ; > > ; > > q+  D.",
"D.p+- & - ; ; > > b.b.8.> ; - p+& - - > ; > ; ; > > > > ; q+  D.D.p+& - ; - & & & & & & > ; > ; - & - - & > > > b.b.; - & q+  D.",
"D.p+- & & - ; ; > > ; > ; ; ; - & - - > ; > > ; ; > ; > > q+  D.D.p+- & & & - p+& - & & ; - > > ; ; & ; - ; b.> > ; > > & q+  D.",
"D.q+q+q++.@.@.@.@.                        @.@.@.@.@.+.q+q+q+  D.D.q+q+q++.@.@.@.@.                        @.@.@.@.@.+.q+q+q+  D.",
"D.k+                                                          D.D.k+                                                          D."};
